<mxfile host="app.diagrams.net" agent="Mozilla/5.0 (Windows NT 10.0; Win64; x64) AppleWebKit/537.36 (KHTML, like Gecko) Chrome/129.0.0.0 Safari/537.36" version="24.7.17">
  <diagram name="Página-1" id="SLpsRFM9M03zgRc02MQP">
    <mxGraphModel dx="1195" dy="1819" grid="1" gridSize="10" guides="1" tooltips="1" connect="1" arrows="1" fold="1" page="1" pageScale="1" pageWidth="827" pageHeight="1169" math="0" shadow="0">
      <root>
        <mxCell id="0" />
        <mxCell id="1" parent="0" />
        <mxCell id="FTN4nGED5i8UFCGmp5dz-1" value="Usuário" style="shape=umlActor;verticalLabelPosition=bottom;verticalAlign=top;html=1;outlineConnect=0;" vertex="1" parent="1">
          <mxGeometry x="214" y="80" width="30" height="60" as="geometry" />
        </mxCell>
        <mxCell id="FTN4nGED5i8UFCGmp5dz-2" value="" style="endArrow=none;dashed=1;html=1;rounded=0;" edge="1" parent="1">
          <mxGeometry width="50" height="50" relative="1" as="geometry">
            <mxPoint x="224" y="410" as="sourcePoint" />
            <mxPoint x="224" y="160" as="targetPoint" />
          </mxGeometry>
        </mxCell>
        <mxCell id="FTN4nGED5i8UFCGmp5dz-3" value="Sistema" style="rounded=0;whiteSpace=wrap;html=1;" vertex="1" parent="1">
          <mxGeometry x="518" y="120" width="60" height="30" as="geometry" />
        </mxCell>
        <mxCell id="FTN4nGED5i8UFCGmp5dz-4" value="" style="endArrow=none;dashed=1;html=1;rounded=0;" edge="1" parent="1" source="FTN4nGED5i8UFCGmp5dz-7">
          <mxGeometry width="50" height="50" relative="1" as="geometry">
            <mxPoint x="547.5" y="550" as="sourcePoint" />
            <mxPoint x="547.5" y="150" as="targetPoint" />
          </mxGeometry>
        </mxCell>
        <mxCell id="FTN4nGED5i8UFCGmp5dz-5" value="" style="endArrow=classic;html=1;rounded=0;" edge="1" parent="1">
          <mxGeometry width="50" height="50" relative="1" as="geometry">
            <mxPoint x="224" y="220" as="sourcePoint" />
            <mxPoint x="544" y="220" as="targetPoint" />
          </mxGeometry>
        </mxCell>
        <mxCell id="FTN4nGED5i8UFCGmp5dz-6" value="" style="endArrow=none;dashed=1;html=1;rounded=0;" edge="1" parent="1" source="FTN4nGED5i8UFCGmp5dz-13" target="FTN4nGED5i8UFCGmp5dz-7">
          <mxGeometry width="50" height="50" relative="1" as="geometry">
            <mxPoint x="547.5" y="550" as="sourcePoint" />
            <mxPoint x="547.5" y="150" as="targetPoint" />
          </mxGeometry>
        </mxCell>
        <mxCell id="FTN4nGED5i8UFCGmp5dz-7" value="" style="rounded=0;whiteSpace=wrap;html=1;rotation=90;" vertex="1" parent="1">
          <mxGeometry x="532.5" y="230" width="31" height="10" as="geometry" />
        </mxCell>
        <mxCell id="FTN4nGED5i8UFCGmp5dz-8" value="Clicar para editar produto" style="text;html=1;align=center;verticalAlign=middle;whiteSpace=wrap;rounded=0;" vertex="1" parent="1">
          <mxGeometry x="304" y="200" width="160" height="30" as="geometry" />
        </mxCell>
        <mxCell id="FTN4nGED5i8UFCGmp5dz-9" value="" style="endArrow=none;dashed=1;html=1;rounded=0;entryX=1;entryY=1;entryDx=0;entryDy=0;startArrow=open;startFill=0;" edge="1" parent="1" target="FTN4nGED5i8UFCGmp5dz-7">
          <mxGeometry width="50" height="50" relative="1" as="geometry">
            <mxPoint x="224" y="251" as="sourcePoint" />
            <mxPoint x="454" y="320" as="targetPoint" />
          </mxGeometry>
        </mxCell>
        <mxCell id="FTN4nGED5i8UFCGmp5dz-10" value="&lt;font style=&quot;font-size: 9px;&quot;&gt;Mostra a interface de edição de produtos com as informações anteriores&lt;/font&gt;" style="text;html=1;align=center;verticalAlign=middle;whiteSpace=wrap;rounded=0;" vertex="1" parent="1">
          <mxGeometry x="173" y="230" width="422" height="30" as="geometry" />
        </mxCell>
        <mxCell id="FTN4nGED5i8UFCGmp5dz-11" value="" style="endArrow=classic;html=1;rounded=0;" edge="1" parent="1">
          <mxGeometry width="50" height="50" relative="1" as="geometry">
            <mxPoint x="224" y="310" as="sourcePoint" />
            <mxPoint x="544" y="310" as="targetPoint" />
          </mxGeometry>
        </mxCell>
        <mxCell id="FTN4nGED5i8UFCGmp5dz-12" value="" style="endArrow=none;dashed=1;html=1;rounded=0;" edge="1" parent="1" target="FTN4nGED5i8UFCGmp5dz-13">
          <mxGeometry width="50" height="50" relative="1" as="geometry">
            <mxPoint x="548" y="410" as="sourcePoint" />
            <mxPoint x="548" y="251" as="targetPoint" />
          </mxGeometry>
        </mxCell>
        <mxCell id="FTN4nGED5i8UFCGmp5dz-13" value="" style="rounded=0;whiteSpace=wrap;html=1;rotation=90;" vertex="1" parent="1">
          <mxGeometry x="534.31" y="320.31" width="27.36" height="10" as="geometry" />
        </mxCell>
        <mxCell id="FTN4nGED5i8UFCGmp5dz-14" value="&lt;font style=&quot;font-size: 11px;&quot;&gt;Entrar com a edição (Nome, preço, descrição, quantidade)&lt;/font&gt;" style="text;html=1;align=center;verticalAlign=middle;whiteSpace=wrap;rounded=0;" vertex="1" parent="1">
          <mxGeometry x="216" y="290" width="336" height="30" as="geometry" />
        </mxCell>
        <mxCell id="FTN4nGED5i8UFCGmp5dz-25" value="" style="endArrow=none;dashed=1;html=1;rounded=0;startArrow=open;startFill=0;" edge="1" parent="1">
          <mxGeometry width="50" height="50" relative="1" as="geometry">
            <mxPoint x="224.25" y="340" as="sourcePoint" />
            <mxPoint x="543.75" y="340" as="targetPoint" />
          </mxGeometry>
        </mxCell>
        <mxCell id="FTN4nGED5i8UFCGmp5dz-26" value="Avisa que o produto foi editado" style="text;html=1;align=center;verticalAlign=middle;whiteSpace=wrap;rounded=0;" vertex="1" parent="1">
          <mxGeometry x="259" y="320" width="250" height="30" as="geometry" />
        </mxCell>
        <mxCell id="FTN4nGED5i8UFCGmp5dz-28" value="Diagrama de Sequência do Sistema de Editar Produto" style="text;html=1;align=center;verticalAlign=middle;whiteSpace=wrap;rounded=0;" vertex="1" parent="1">
          <mxGeometry x="232" y="-40" width="320" height="160" as="geometry" />
        </mxCell>
      </root>
    </mxGraphModel>
  </diagram>
</mxfile>
